<?xml version="1.0" encoding="utf-8" standalone="no"?>
<!DOCTYPE svg PUBLIC "-//W3C//DTD SVG 1.1//EN"
  "http://www.w3.org/Graphics/SVG/1.1/DTD/svg11.dtd">
<svg height="504pt" version="1.1" viewBox="0 0 504 504" width="504pt" xmlns="http://www.w3.org/2000/svg" xmlns:xlink="http://www.w3.org/1999/xlink">
 <metadata>
  <rdf:RDF xmlns:cc="http://creativecommons.org/ns#" xmlns:dc="http://purl.org/dc/elements/1.1/" xmlns:rdf="http://www.w3.org/1999/02/22-rdf-syntax-ns#">
   <cc:Work>
    <dc:type rdf:resource="http://purl.org/dc/dcmitype/StillImage"/>
    <dc:date>2021-12-06T05:53:03.110589</dc:date>
    <dc:format>image/svg+xml</dc:format>
    <dc:creator>
     <cc:Agent>
      <dc:title>Matplotlib v3.4.2, https://matplotlib.org/</dc:title>
     </cc:Agent>
    </dc:creator>
   </cc:Work>
  </rdf:RDF>
 </metadata>
 <defs>
  <style type="text/css">*{stroke-linecap:butt;stroke-linejoin:round;}</style>
 </defs>
 <g id="figure_1">
  <g id="patch_1">
   <path d="M 0 504 
L 504 504 
L 504 0 
L 0 0 
z
" style="fill:#ffffff;"/>
  </g>
  <g id="axes_1">
   <g id="patch_2">
    <path d="M 63 441 
L 453.6 441 
L 453.6 60.48 
L 63 60.48 
z
" style="fill:#ffffff;"/>
   </g>
   <g id="PathCollection_1">
    <path clip-path="url(#p620683f6e1)" d="M 198.889893 370.022841 
C 200.567184 370.022841 202.176004 369.356446 203.362029 368.170422 
C 204.548053 366.984397 205.214448 365.375577 205.214448 363.698286 
C 205.214448 362.020994 204.548053 360.412174 203.362029 359.22615 
C 202.176004 358.040125 200.567184 357.37373 198.889893 357.37373 
C 197.212601 357.37373 195.603781 358.040125 194.417757 359.22615 
C 193.231732 360.412174 192.565337 362.020994 192.565337 363.698286 
C 192.565337 365.375577 193.231732 366.984397 194.417757 368.170422 
C 195.603781 369.356446 197.212601 370.022841 198.889893 370.022841 
z
" style="fill:#1f77b4;stroke:#ffffff;stroke-width:1.011929;"/>
    <path clip-path="url(#p620683f6e1)" d="M 198.889893 292.845937 
C 200.567184 292.845937 202.176004 292.179542 203.362029 290.993517 
C 204.548053 289.807493 205.214448 288.198673 205.214448 286.521381 
C 205.214448 284.84409 204.548053 283.23527 203.362029 282.049245 
C 202.176004 280.863221 200.567184 280.196826 198.889893 280.196826 
C 197.212601 280.196826 195.603781 280.863221 194.417757 282.049245 
C 193.231732 283.23527 192.565337 284.84409 192.565337 286.521381 
C 192.565337 288.198673 193.231732 289.807493 194.417757 290.993517 
C 195.603781 292.179542 197.212601 292.845937 198.889893 292.845937 
z
" style="fill:#ff7f0e;stroke:#ffffff;stroke-width:1.011929;"/>
    <path clip-path="url(#p620683f6e1)" d="M 282.331055 327.386164 
C 284.008346 327.386164 285.617166 326.719769 286.803191 325.533744 
C 287.989215 324.34772 288.65561 322.7389 288.65561 321.061608 
C 288.65561 319.384317 287.989215 317.775497 286.803191 316.589472 
C 285.617166 315.403448 284.008346 314.737053 282.331055 314.737053 
C 280.653763 314.737053 279.044943 315.403448 277.858919 316.589472 
C 276.672894 317.775497 276.006499 319.384317 276.006499 321.061608 
C 276.006499 322.7389 276.672894 324.34772 277.858919 325.533744 
C 279.044943 326.719769 280.653763 327.386164 282.331055 327.386164 
z
" style="fill:#2ca02c;stroke:#ffffff;stroke-width:1.011929;"/>
    <path clip-path="url(#p620683f6e1)" d="M 194.121826 351.007024 
C 195.799118 351.007024 197.407938 350.340629 198.593962 349.154604 
C 199.779986 347.96858 200.446381 346.35976 200.446381 344.682469 
C 200.446381 343.005177 199.779986 341.396357 198.593962 340.210333 
C 197.407938 339.024308 195.799118 338.357913 194.121826 338.357913 
C 192.444534 338.357913 190.835715 339.024308 189.64969 340.210333 
C 188.463666 341.396357 187.797271 343.005177 187.797271 344.682469 
C 187.797271 346.35976 188.463666 347.96858 189.64969 349.154604 
C 190.835715 350.340629 192.444534 351.007024 194.121826 351.007024 
z
" style="fill:#1f77b4;stroke:#ffffff;stroke-width:1.011929;"/>
    <path clip-path="url(#p620683f6e1)" d="M 177.433594 300.711279 
C 179.110885 300.711279 180.719705 300.044884 181.90573 298.858859 
C 183.091754 297.672835 183.758149 296.064015 183.758149 294.386723 
C 183.758149 292.709432 183.091754 291.100612 181.90573 289.914587 
C 180.719705 288.728563 179.110885 288.062168 177.433594 288.062168 
C 175.756302 288.062168 174.147482 288.728563 172.961458 289.914587 
C 171.775433 291.100612 171.109038 292.709432 171.109038 294.386723 
C 171.109038 296.064015 171.775433 297.672835 172.961458 298.858859 
C 174.147482 300.044884 175.756302 300.711279 177.433594 300.711279 
z
" style="fill:#ff7f0e;stroke:#ffffff;stroke-width:1.011929;"/>
    <path clip-path="url(#p620683f6e1)" d="M 263.258789 270.442973 
C 264.936081 270.442973 266.544901 269.776578 267.730925 268.590554 
C 268.916949 267.404529 269.583344 265.79571 269.583344 264.118418 
C 269.583344 262.441126 268.916949 260.832306 267.730925 259.646282 
C 266.544901 258.460258 264.936081 257.793863 263.258789 257.793863 
C 261.581497 257.793863 259.972677 258.460258 258.786653 259.646282 
C 257.600629 260.832306 256.934234 262.441126 256.934234 264.118418 
C 256.934234 265.79571 257.600629 267.404529 258.786653 268.590554 
C 259.972677 269.776578 261.581497 270.442973 263.258789 270.442973 
z
" style="fill:#2ca02c;stroke:#ffffff;stroke-width:1.011929;"/>
    <path clip-path="url(#p620683f6e1)" d="M 187.565735 333.602557 
C 189.243027 333.602557 190.851846 332.936162 192.037871 331.750138 
C 193.223895 330.564114 193.89029 328.955294 193.89029 327.278002 
C 193.89029 325.60071 193.223895 323.99189 192.037871 322.805866 
C 190.851846 321.619842 189.243027 320.953447 187.565735 320.953447 
C 185.888443 320.953447 184.279623 321.619842 183.093599 322.805866 
C 181.907575 323.99189 181.24118 325.60071 181.24118 327.278002 
C 181.24118 328.955294 181.907575 330.564114 183.093599 331.750138 
C 184.279623 332.936162 185.888443 333.602557 187.565735 333.602557 
z
" style="fill:#1f77b4;stroke:#ffffff;stroke-width:1.011929;"/>
    <path clip-path="url(#p620683f6e1)" d="M 187.565735 285.400936 
C 189.243027 285.400936 190.851846 284.734541 192.037871 283.548517 
C 193.223895 282.362492 193.89029 280.753673 193.89029 279.076381 
C 193.89029 277.399089 193.223895 275.790269 192.037871 274.604245 
C 190.851846 273.418221 189.243027 272.751826 187.565735 272.751826 
C 185.888443 272.751826 184.279623 273.418221 183.093599 274.604245 
C 181.907575 275.790269 181.24118 277.399089 181.24118 279.076381 
C 181.24118 280.753673 181.907575 282.362492 183.093599 283.548517 
C 184.279623 284.734541 185.888443 285.400936 187.565735 285.400936 
z
" style="fill:#ff7f0e;stroke:#ffffff;stroke-width:1.011929;"/>
    <path clip-path="url(#p620683f6e1)" d="M 256.106689 227.832693 
C 257.783981 227.832693 259.392801 227.166298 260.578825 225.980274 
C 261.76485 224.79425 262.431245 223.18543 262.431245 221.508138 
C 262.431245 219.830846 261.76485 218.222027 260.578825 217.036002 
C 259.392801 215.849978 257.783981 215.183583 256.106689 215.183583 
C 254.429398 215.183583 252.820578 215.849978 251.634553 217.036002 
C 250.448529 218.222027 249.782134 219.830846 249.782134 221.508138 
C 249.782134 223.18543 250.448529 224.79425 251.634553 225.980274 
C 252.820578 227.166298 254.429398 227.832693 256.106689 227.832693 
z
" style="fill:#2ca02c;stroke:#ffffff;stroke-width:1.011929;"/>
    <path clip-path="url(#p620683f6e1)" d="M 153.593262 412.161877 
C 155.270553 412.161877 156.879373 411.495482 158.065398 410.309457 
C 159.251422 409.123433 159.917817 407.514613 159.917817 405.837321 
C 159.917817 404.16003 159.251422 402.55121 158.065398 401.365186 
C 156.879373 400.179161 155.270553 399.512766 153.593262 399.512766 
C 151.91597 399.512766 150.30715 400.179161 149.121126 401.365186 
C 147.935101 402.55121 147.268706 404.16003 147.268706 405.837321 
C 147.268706 407.514613 147.935101 409.123433 149.121126 410.309457 
C 150.30715 411.495482 151.91597 412.161877 153.593262 412.161877 
z
" style="fill:#1f77b4;stroke:#ffffff;stroke-width:1.011929;"/>
    <path clip-path="url(#p620683f6e1)" d="M 89.224365 387.823717 
C 90.901657 387.823717 92.510477 387.157322 93.696501 385.971298 
C 94.882526 384.785273 95.548921 383.176453 95.548921 381.499162 
C 95.548921 379.82187 94.882526 378.21305 93.696501 377.027026 
C 92.510477 375.841001 90.901657 375.174606 89.224365 375.174606 
C 87.547074 375.174606 85.938254 375.841001 84.752229 377.027026 
C 83.566205 378.21305 82.89981 379.82187 82.89981 381.499162 
C 82.89981 383.176453 83.566205 384.785273 84.752229 385.971298 
C 85.938254 387.157322 87.547074 387.823717 89.224365 387.823717 
z
" style="fill:#ff7f0e;stroke:#ffffff;stroke-width:1.011929;"/>
    <path clip-path="url(#p620683f6e1)" d="M 217.962158 394.620367 
C 219.63945 394.620367 221.24827 393.953972 222.434294 392.767947 
C 223.620318 391.581923 224.286714 389.973103 224.286714 388.295811 
C 224.286714 386.61852 223.620318 385.0097 222.434294 383.823676 
C 221.24827 382.637651 219.63945 381.971256 217.962158 381.971256 
C 216.284867 381.971256 214.676047 382.637651 213.490022 383.823676 
C 212.303998 385.0097 211.637603 386.61852 211.637603 388.295811 
C 211.637603 389.973103 212.303998 391.581923 213.490022 392.767947 
C 214.676047 393.953972 216.284867 394.620367 217.962158 394.620367 
z
" style="fill:#2ca02c;stroke:#ffffff;stroke-width:1.011929;"/>
    <path clip-path="url(#p620683f6e1)" d="M 136.905029 404.203069 
C 138.582321 404.203069 140.191141 403.536674 141.377165 402.350649 
C 142.56319 401.164625 143.229585 399.555805 143.229585 397.878513 
C 143.229585 396.201222 142.56319 394.592402 141.377165 393.406377 
C 140.191141 392.220353 138.582321 391.553958 136.905029 391.553958 
C 135.227738 391.553958 133.618918 392.220353 132.432893 393.406377 
C 131.246869 394.592402 130.580474 396.201222 130.580474 397.878513 
C 130.580474 399.555805 131.246869 401.164625 132.432893 402.350649 
C 133.618918 403.536674 135.227738 404.203069 136.905029 404.203069 
z
" style="fill:#1f77b4;stroke:#ffffff;stroke-width:1.011929;"/>
    <path clip-path="url(#p620683f6e1)" d="M 91.608398 378.582652 
C 93.28569 378.582652 94.89451 377.916257 96.080534 376.730232 
C 97.266559 375.544208 97.932954 373.935388 97.932954 372.258096 
C 97.932954 370.580805 97.266559 368.971985 96.080534 367.78596 
C 94.89451 366.599936 93.28569 365.933541 91.608398 365.933541 
C 89.931107 365.933541 88.322287 366.599936 87.136262 367.78596 
C 85.950238 368.971985 85.283843 370.580805 85.283843 372.258096 
C 85.283843 373.935388 85.950238 375.544208 87.136262 376.730232 
C 88.322287 377.916257 89.931107 378.582652 91.608398 378.582652 
z
" style="fill:#ff7f0e;stroke:#ffffff;stroke-width:1.011929;"/>
    <path clip-path="url(#p620683f6e1)" d="M 208.426025 358.56915 
C 210.103317 358.56915 211.712137 357.902755 212.898161 356.71673 
C 214.084186 355.530706 214.750581 353.921886 214.750581 352.244594 
C 214.750581 350.567303 214.084186 348.958483 212.898161 347.772458 
C 211.712137 346.586434 210.103317 345.920039 208.426025 345.920039 
C 206.748734 345.920039 205.139914 346.586434 203.953889 347.772458 
C 202.767865 348.958483 202.10147 350.567303 202.10147 352.244594 
C 202.10147 353.921886 202.767865 355.530706 203.953889 356.71673 
C 205.139914 357.902755 206.748734 358.56915 208.426025 358.56915 
z
" style="fill:#2ca02c;stroke:#ffffff;stroke-width:1.011929;"/>
    <path clip-path="url(#p620683f6e1)" d="M 134.520996 394.197183 
C 136.198288 394.197183 137.807108 393.530787 138.993132 392.344763 
C 140.179156 391.158739 140.845551 389.549919 140.845551 387.872627 
C 140.845551 386.195336 140.179156 384.586516 138.993132 383.400491 
C 137.807108 382.214467 136.198288 381.548072 134.520996 381.548072 
C 132.843704 381.548072 131.234884 382.214467 130.04886 383.400491 
C 128.862836 384.586516 128.196441 386.195336 128.196441 387.872627 
C 128.196441 389.549919 128.862836 391.158739 130.04886 392.344763 
C 131.234884 393.530787 132.843704 394.197183 134.520996 394.197183 
z
" style="fill:#1f77b4;stroke:#ffffff;stroke-width:1.011929;"/>
    <path clip-path="url(#p620683f6e1)" d="M 91.608398 380.744022 
C 93.28569 380.744022 94.89451 380.077627 96.080534 378.891603 
C 97.266559 377.705579 97.932954 376.096759 97.932954 374.419467 
C 97.932954 372.742175 97.266559 371.133355 96.080534 369.947331 
C 94.89451 368.761307 93.28569 368.094912 91.608398 368.094912 
C 89.931107 368.094912 88.322287 368.761307 87.136262 369.947331 
C 85.950238 371.133355 85.283843 372.742175 85.283843 374.419467 
C 85.283843 376.096759 85.950238 377.705579 87.136262 378.891603 
C 88.322287 380.077627 89.931107 380.744022 91.608398 380.744022 
z
" style="fill:#ff7f0e;stroke:#ffffff;stroke-width:1.011929;"/>
    <path clip-path="url(#p620683f6e1)" d="M 206.041992 329.476399 
C 207.719284 329.476399 209.328104 328.810004 210.514128 327.623979 
C 211.700152 326.437955 212.366548 324.829135 212.366548 323.151844 
C 212.366548 321.474552 211.700152 319.865732 210.514128 318.679708 
C 209.328104 317.493683 207.719284 316.827288 206.041992 316.827288 
C 204.364701 316.827288 202.755881 317.493683 201.569856 318.679708 
C 200.383832 319.865732 199.717437 321.474552 199.717437 323.151844 
C 199.717437 324.829135 200.383832 326.437955 201.569856 327.623979 
C 202.755881 328.810004 204.364701 329.476399 206.041992 329.476399 
z
" style="fill:#2ca02c;stroke:#ffffff;stroke-width:1.011929;"/>
    <path clip-path="url(#p620683f6e1)" d="M 135.855613 281.109824 
L 139.017891 277.947546 
L 142.180169 281.109824 
L 145.342446 277.947546 
L 142.180169 274.785268 
L 145.342446 271.622991 
L 142.180169 268.460713 
L 139.017891 271.622991 
L 135.855613 268.460713 
L 132.693336 271.622991 
L 135.855613 274.785268 
L 132.693336 277.947546 
z
" style="fill:#ff7f0e;stroke:#ffffff;stroke-width:1.011929;"/>
    <path clip-path="url(#p620683f6e1)" d="M 324.549624 162.689348 
L 327.711901 159.52707 
L 330.874179 162.689348 
L 334.036457 159.52707 
L 330.874179 156.364793 
L 334.036457 153.202515 
L 330.874179 150.040237 
L 327.711901 153.202515 
L 324.549624 150.040237 
L 321.387346 153.202515 
L 324.549624 156.364793 
L 321.387346 159.52707 
z
" style="fill:#ff7f0e;stroke:#ffffff;stroke-width:1.011929;"/>
    <path clip-path="url(#p620683f6e1)" d="M 141.603536 243.586737 
L 144.765813 240.42446 
L 147.928091 243.586737 
L 151.090369 240.42446 
L 147.928091 237.262182 
L 151.090369 234.099904 
L 147.928091 230.937627 
L 144.765813 234.099904 
L 141.603536 230.937627 
L 138.441258 234.099904 
L 141.603536 237.262182 
L 138.441258 240.42446 
z
" style="fill:#1f77b4;stroke:#ffffff;stroke-width:1.011929;"/>
    <path clip-path="url(#p620683f6e1)" d="M 136.556957 162.917925 
L 139.719234 159.755647 
L 142.881512 162.917925 
L 146.04379 159.755647 
L 142.881512 156.59337 
L 146.04379 153.431092 
L 142.881512 150.268814 
L 139.719234 153.431092 
L 136.556957 150.268814 
L 133.394679 153.431092 
L 136.556957 156.59337 
L 133.394679 159.755647 
z
" style="fill:#1f77b4;stroke:#ffffff;stroke-width:1.011929;"/>
    <path clip-path="url(#p620683f6e1)" d="M 259.698112 84.100919 
L 262.86039 80.938641 
L 266.022667 84.100919 
L 269.184945 80.938641 
L 266.022667 77.776364 
L 269.184945 74.614086 
L 266.022667 71.451808 
L 262.86039 74.614086 
L 259.698112 71.451808 
L 256.535834 74.614086 
L 259.698112 77.776364 
L 256.535834 80.938641 
z
" style="fill:#2ca02c;stroke:#ffffff;stroke-width:1.011929;"/>
    <path clip-path="url(#p620683f6e1)" d="M 179.379914 182.773989 
L 182.542192 179.611711 
L 185.70447 182.773989 
L 188.866747 179.611711 
L 185.70447 176.449434 
L 188.866747 173.287156 
L 185.70447 170.124878 
L 182.542192 173.287156 
L 179.379914 170.124878 
L 176.217637 173.287156 
L 179.379914 176.449434 
L 176.217637 179.611711 
z
" style="fill:#2ca02c;stroke:#ffffff;stroke-width:1.011929;"/>
    <path clip-path="url(#p620683f6e1)" d="M 149.796873 379.658808 
L 149.796873 388.60308 
L 158.741145 388.60308 
L 158.741145 379.658808 
z
" style="fill:#1f77b4;stroke:#ffffff;stroke-width:1.011929;"/>
    <path clip-path="url(#p620683f6e1)" d="M 109.825937 419.2315 
L 109.825937 428.175772 
L 118.770209 428.175772 
L 118.770209 419.2315 
z
" style="fill:#1f77b4;stroke:#ffffff;stroke-width:1.011929;"/>
    <path clip-path="url(#p620683f6e1)" d="M 236.663027 350.496488 
L 236.663027 359.44076 
L 245.607299 359.44076 
L 245.607299 350.496488 
z
" style="fill:#2ca02c;stroke:#ffffff;stroke-width:1.011929;"/>
    <path clip-path="url(#p620683f6e1)" d="M 247.145012 367.820548 
L 247.145012 376.76482 
L 256.089284 376.76482 
L 256.089284 367.820548 
z
" style="fill:#2ca02c;stroke:#ffffff;stroke-width:1.011929;"/>
    <path clip-path="url(#p620683f6e1)" d="M 209.623321 370.567701 
L 209.623321 379.511973 
L 218.567593 379.511973 
L 218.567593 370.567701 
z
" style="fill:#d62728;stroke:#ffffff;stroke-width:1.011929;"/>
    <path clip-path="url(#p620683f6e1)" d="M 302.017743 266.759786 
L 302.017743 275.704058 
L 310.962015 275.704058 
L 310.962015 266.759786 
z
" style="fill:#d62728;stroke:#ffffff;stroke-width:1.011929;"/>
    <path clip-path="url(#p620683f6e1)" d="M 399.42453 138.089038 
L 403.6409 138.089038 
L 403.6409 133.872667 
L 407.85727 133.872667 
L 407.85727 129.656297 
L 403.6409 129.656297 
L 403.6409 125.439927 
L 399.42453 125.439927 
L 399.42453 129.656297 
L 395.20816 129.656297 
L 395.20816 133.872667 
L 399.42453 133.872667 
z
" style="fill:#2ca02c;stroke:#ffffff;stroke-width:1.011929;"/>
    <path clip-path="url(#p620683f6e1)" d="M 289.759002 289.462765 
L 293.975373 289.462765 
L 293.975373 285.246394 
L 298.191743 285.246394 
L 298.191743 281.030024 
L 293.975373 281.030024 
L 293.975373 276.813654 
L 289.759002 276.813654 
L 289.759002 281.030024 
L 285.542632 281.030024 
L 285.542632 285.246394 
L 289.759002 285.246394 
z
" style="fill:#2ca02c;stroke:#ffffff;stroke-width:1.011929;"/>
    <path clip-path="url(#p620683f6e1)" d="M 389.888397 183.662653 
L 394.104767 183.662653 
L 394.104767 179.446283 
L 398.321137 179.446283 
L 398.321137 175.229913 
L 394.104767 175.229913 
L 394.104767 171.013543 
L 389.888397 171.013543 
L 389.888397 175.229913 
L 385.672027 175.229913 
L 385.672027 179.446283 
L 389.888397 179.446283 
z
" style="fill:#2ca02c;stroke:#ffffff;stroke-width:1.011929;"/>
    <path clip-path="url(#p620683f6e1)" d="M 313.599334 246.08783 
L 317.815705 246.08783 
L 317.815705 241.871459 
L 322.032075 241.871459 
L 322.032075 237.655089 
L 317.815705 237.655089 
L 317.815705 233.438719 
L 313.599334 233.438719 
L 313.599334 237.655089 
L 309.382964 237.655089 
L 309.382964 241.871459 
L 313.599334 241.871459 
z
" style="fill:#2ca02c;stroke:#ffffff;stroke-width:1.011929;"/>
    <path clip-path="url(#p620683f6e1)" d="M 273.07077 273.669454 
L 277.28714 273.669454 
L 277.28714 269.453084 
L 281.50351 269.453084 
L 281.50351 265.236714 
L 277.28714 265.236714 
L 277.28714 261.020344 
L 273.07077 261.020344 
L 273.07077 265.236714 
L 268.8544 265.236714 
L 268.8544 269.453084 
L 273.07077 269.453084 
z
" style="fill:#1f77b4;stroke:#ffffff;stroke-width:1.011929;"/>
    <path clip-path="url(#p620683f6e1)" d="M 184.861541 341.857153 
L 189.077912 341.857153 
L 189.077912 337.640783 
L 193.294282 337.640783 
L 193.294282 333.424413 
L 189.077912 333.424413 
L 189.077912 329.208042 
L 184.861541 329.208042 
L 184.861541 333.424413 
L 180.645171 333.424413 
L 180.645171 337.640783 
L 184.861541 337.640783 
z
" style="fill:#1f77b4;stroke:#ffffff;stroke-width:1.011929;"/>
    <path clip-path="url(#p620683f6e1)" d="M 175.325409 337.503861 
L 179.541779 337.503861 
L 179.541779 333.28749 
L 183.758149 333.28749 
L 183.758149 329.07112 
L 179.541779 329.07112 
L 179.541779 324.85475 
L 175.325409 324.85475 
L 175.325409 329.07112 
L 171.109038 329.07112 
L 171.109038 333.28749 
L 175.325409 333.28749 
z
" style="fill:#1f77b4;stroke:#ffffff;stroke-width:1.011929;"/>
    <path clip-path="url(#p620683f6e1)" d="M 141.948944 360.687377 
L 146.165314 360.687377 
L 146.165314 356.471007 
L 150.381684 356.471007 
L 150.381684 352.254637 
L 146.165314 352.254637 
L 146.165314 348.038266 
L 141.948944 348.038266 
L 141.948944 352.254637 
L 137.732574 352.254637 
L 137.732574 356.471007 
L 141.948944 356.471007 
z
" style="fill:#1f77b4;stroke:#ffffff;stroke-width:1.011929;"/>
    <path clip-path="url(#p620683f6e1)" d="M 132.412811 384.312285 
L 136.629181 384.312285 
L 136.629181 380.095915 
L 140.845551 380.095915 
L 140.845551 375.879545 
L 136.629181 375.879545 
L 136.629181 371.663174 
L 132.412811 371.663174 
L 132.412811 375.879545 
L 128.196441 375.879545 
L 128.196441 380.095915 
L 132.412811 380.095915 
z
" style="fill:#ff7f0e;stroke:#ffffff;stroke-width:1.011929;"/>
    <path clip-path="url(#p620683f6e1)" d="M 108.572479 392.381001 
L 112.788849 392.381001 
L 112.788849 388.16463 
L 117.005219 388.16463 
L 117.005219 383.94826 
L 112.788849 383.94826 
L 112.788849 379.73189 
L 108.572479 379.73189 
L 108.572479 383.94826 
L 104.356109 383.94826 
L 104.356109 388.16463 
L 108.572479 388.16463 
z
" style="fill:#ff7f0e;stroke:#ffffff;stroke-width:1.011929;"/>
    <path clip-path="url(#p620683f6e1)" d="M 99.036346 405.580179 
L 103.252716 405.580179 
L 103.252716 401.363809 
L 107.469087 401.363809 
L 107.469087 397.147439 
L 103.252716 397.147439 
L 103.252716 392.931069 
L 99.036346 392.931069 
L 99.036346 397.147439 
L 94.819976 397.147439 
L 94.819976 401.363809 
L 99.036346 401.363809 
z
" style="fill:#ff7f0e;stroke:#ffffff;stroke-width:1.011929;"/>
    <path clip-path="url(#p620683f6e1)" d="M 99.036346 412.834557 
L 103.252716 412.834557 
L 103.252716 408.618187 
L 107.469087 408.618187 
L 107.469087 404.401817 
L 103.252716 404.401817 
L 103.252716 400.185446 
L 99.036346 400.185446 
L 99.036346 404.401817 
L 94.819976 404.401817 
L 94.819976 408.618187 
L 99.036346 408.618187 
z
" style="fill:#ff7f0e;stroke:#ffffff;stroke-width:1.011929;"/>
   </g>
   <g id="PathCollection_2"/>
   <g id="PathCollection_3"/>
   <g id="PathCollection_4"/>
   <g id="PathCollection_5"/>
   <g id="PathCollection_6"/>
   <g id="PathCollection_7"/>
   <g id="PathCollection_8"/>
   <g id="PathCollection_9"/>
   <g id="matplotlib.axis_1">
    <g id="xtick_1">
     <g id="line2d_1">
      <defs>
       <path d="M 0 0 
L 0 3.5 
" id="meb3bc286b6" style="stroke:#000000;stroke-width:0.8;"/>
      </defs>
      <g>
       <use style="stroke:#000000;stroke-width:0.8;" x="63" xlink:href="#meb3bc286b6" y="441"/>
      </g>
     </g>
     <g id="text_1">
      <!-- 0.0 -->
      <g transform="translate(47.096875 463.196875)scale(0.2 -0.2)">
       <defs>
        <path d="M 2034 4250 
Q 1547 4250 1301 3770 
Q 1056 3291 1056 2328 
Q 1056 1369 1301 889 
Q 1547 409 2034 409 
Q 2525 409 2770 889 
Q 3016 1369 3016 2328 
Q 3016 3291 2770 3770 
Q 2525 4250 2034 4250 
z
M 2034 4750 
Q 2819 4750 3233 4129 
Q 3647 3509 3647 2328 
Q 3647 1150 3233 529 
Q 2819 -91 2034 -91 
Q 1250 -91 836 529 
Q 422 1150 422 2328 
Q 422 3509 836 4129 
Q 1250 4750 2034 4750 
z
" id="DejaVuSans-30" transform="scale(0.015625)"/>
        <path d="M 684 794 
L 1344 794 
L 1344 0 
L 684 0 
L 684 794 
z
" id="DejaVuSans-2e" transform="scale(0.015625)"/>
       </defs>
       <use xlink:href="#DejaVuSans-30"/>
       <use x="63.623047" xlink:href="#DejaVuSans-2e"/>
       <use x="95.410156" xlink:href="#DejaVuSans-30"/>
      </g>
     </g>
    </g>
    <g id="xtick_2">
     <g id="line2d_2">
      <g>
       <use style="stroke:#000000;stroke-width:0.8;" x="128.1" xlink:href="#meb3bc286b6" y="441"/>
      </g>
     </g>
     <g id="text_2">
      <!-- 0.2 -->
      <g transform="translate(112.196875 463.196875)scale(0.2 -0.2)">
       <defs>
        <path d="M 1228 531 
L 3431 531 
L 3431 0 
L 469 0 
L 469 531 
Q 828 903 1448 1529 
Q 2069 2156 2228 2338 
Q 2531 2678 2651 2914 
Q 2772 3150 2772 3378 
Q 2772 3750 2511 3984 
Q 2250 4219 1831 4219 
Q 1534 4219 1204 4116 
Q 875 4013 500 3803 
L 500 4441 
Q 881 4594 1212 4672 
Q 1544 4750 1819 4750 
Q 2544 4750 2975 4387 
Q 3406 4025 3406 3419 
Q 3406 3131 3298 2873 
Q 3191 2616 2906 2266 
Q 2828 2175 2409 1742 
Q 1991 1309 1228 531 
z
" id="DejaVuSans-32" transform="scale(0.015625)"/>
       </defs>
       <use xlink:href="#DejaVuSans-30"/>
       <use x="63.623047" xlink:href="#DejaVuSans-2e"/>
       <use x="95.410156" xlink:href="#DejaVuSans-32"/>
      </g>
     </g>
    </g>
    <g id="xtick_3">
     <g id="line2d_3">
      <g>
       <use style="stroke:#000000;stroke-width:0.8;" x="193.2" xlink:href="#meb3bc286b6" y="441"/>
      </g>
     </g>
     <g id="text_3">
      <!-- 0.4 -->
      <g transform="translate(177.296875 463.196875)scale(0.2 -0.2)">
       <defs>
        <path d="M 2419 4116 
L 825 1625 
L 2419 1625 
L 2419 4116 
z
M 2253 4666 
L 3047 4666 
L 3047 1625 
L 3713 1625 
L 3713 1100 
L 3047 1100 
L 3047 0 
L 2419 0 
L 2419 1100 
L 313 1100 
L 313 1709 
L 2253 4666 
z
" id="DejaVuSans-34" transform="scale(0.015625)"/>
       </defs>
       <use xlink:href="#DejaVuSans-30"/>
       <use x="63.623047" xlink:href="#DejaVuSans-2e"/>
       <use x="95.410156" xlink:href="#DejaVuSans-34"/>
      </g>
     </g>
    </g>
    <g id="xtick_4">
     <g id="line2d_4">
      <g>
       <use style="stroke:#000000;stroke-width:0.8;" x="258.3" xlink:href="#meb3bc286b6" y="441"/>
      </g>
     </g>
     <g id="text_4">
      <!-- 0.6 -->
      <g transform="translate(242.396875 463.196875)scale(0.2 -0.2)">
       <defs>
        <path d="M 2113 2584 
Q 1688 2584 1439 2293 
Q 1191 2003 1191 1497 
Q 1191 994 1439 701 
Q 1688 409 2113 409 
Q 2538 409 2786 701 
Q 3034 994 3034 1497 
Q 3034 2003 2786 2293 
Q 2538 2584 2113 2584 
z
M 3366 4563 
L 3366 3988 
Q 3128 4100 2886 4159 
Q 2644 4219 2406 4219 
Q 1781 4219 1451 3797 
Q 1122 3375 1075 2522 
Q 1259 2794 1537 2939 
Q 1816 3084 2150 3084 
Q 2853 3084 3261 2657 
Q 3669 2231 3669 1497 
Q 3669 778 3244 343 
Q 2819 -91 2113 -91 
Q 1303 -91 875 529 
Q 447 1150 447 2328 
Q 447 3434 972 4092 
Q 1497 4750 2381 4750 
Q 2619 4750 2861 4703 
Q 3103 4656 3366 4563 
z
" id="DejaVuSans-36" transform="scale(0.015625)"/>
       </defs>
       <use xlink:href="#DejaVuSans-30"/>
       <use x="63.623047" xlink:href="#DejaVuSans-2e"/>
       <use x="95.410156" xlink:href="#DejaVuSans-36"/>
      </g>
     </g>
    </g>
    <g id="xtick_5">
     <g id="line2d_5">
      <g>
       <use style="stroke:#000000;stroke-width:0.8;" x="323.4" xlink:href="#meb3bc286b6" y="441"/>
      </g>
     </g>
     <g id="text_5">
      <!-- 0.8 -->
      <g transform="translate(307.496875 463.196875)scale(0.2 -0.2)">
       <defs>
        <path d="M 2034 2216 
Q 1584 2216 1326 1975 
Q 1069 1734 1069 1313 
Q 1069 891 1326 650 
Q 1584 409 2034 409 
Q 2484 409 2743 651 
Q 3003 894 3003 1313 
Q 3003 1734 2745 1975 
Q 2488 2216 2034 2216 
z
M 1403 2484 
Q 997 2584 770 2862 
Q 544 3141 544 3541 
Q 544 4100 942 4425 
Q 1341 4750 2034 4750 
Q 2731 4750 3128 4425 
Q 3525 4100 3525 3541 
Q 3525 3141 3298 2862 
Q 3072 2584 2669 2484 
Q 3125 2378 3379 2068 
Q 3634 1759 3634 1313 
Q 3634 634 3220 271 
Q 2806 -91 2034 -91 
Q 1263 -91 848 271 
Q 434 634 434 1313 
Q 434 1759 690 2068 
Q 947 2378 1403 2484 
z
M 1172 3481 
Q 1172 3119 1398 2916 
Q 1625 2713 2034 2713 
Q 2441 2713 2670 2916 
Q 2900 3119 2900 3481 
Q 2900 3844 2670 4047 
Q 2441 4250 2034 4250 
Q 1625 4250 1398 4047 
Q 1172 3844 1172 3481 
z
" id="DejaVuSans-38" transform="scale(0.015625)"/>
       </defs>
       <use xlink:href="#DejaVuSans-30"/>
       <use x="63.623047" xlink:href="#DejaVuSans-2e"/>
       <use x="95.410156" xlink:href="#DejaVuSans-38"/>
      </g>
     </g>
    </g>
    <g id="xtick_6">
     <g id="line2d_6">
      <g>
       <use style="stroke:#000000;stroke-width:0.8;" x="388.5" xlink:href="#meb3bc286b6" y="441"/>
      </g>
     </g>
     <g id="text_6">
      <!-- 1.0 -->
      <g transform="translate(372.596875 463.196875)scale(0.2 -0.2)">
       <defs>
        <path d="M 794 531 
L 1825 531 
L 1825 4091 
L 703 3866 
L 703 4441 
L 1819 4666 
L 2450 4666 
L 2450 531 
L 3481 531 
L 3481 0 
L 794 0 
L 794 531 
z
" id="DejaVuSans-31" transform="scale(0.015625)"/>
       </defs>
       <use xlink:href="#DejaVuSans-31"/>
       <use x="63.623047" xlink:href="#DejaVuSans-2e"/>
       <use x="95.410156" xlink:href="#DejaVuSans-30"/>
      </g>
     </g>
    </g>
    <g id="xtick_7">
     <g id="line2d_7">
      <g>
       <use style="stroke:#000000;stroke-width:0.8;" x="453.6" xlink:href="#meb3bc286b6" y="441"/>
      </g>
     </g>
     <g id="text_7">
      <!-- 1.2 -->
      <g transform="translate(437.696875 463.196875)scale(0.2 -0.2)">
       <use xlink:href="#DejaVuSans-31"/>
       <use x="63.623047" xlink:href="#DejaVuSans-2e"/>
       <use x="95.410156" xlink:href="#DejaVuSans-32"/>
      </g>
     </g>
    </g>
    <g id="text_8">
     <!-- Off-ice area error (m/day) -->
     <g transform="translate(130.557813 486.553125)scale(0.2 -0.2)">
      <defs>
       <path d="M 2522 4238 
Q 1834 4238 1429 3725 
Q 1025 3213 1025 2328 
Q 1025 1447 1429 934 
Q 1834 422 2522 422 
Q 3209 422 3611 934 
Q 4013 1447 4013 2328 
Q 4013 3213 3611 3725 
Q 3209 4238 2522 4238 
z
M 2522 4750 
Q 3503 4750 4090 4092 
Q 4678 3434 4678 2328 
Q 4678 1225 4090 567 
Q 3503 -91 2522 -91 
Q 1538 -91 948 565 
Q 359 1222 359 2328 
Q 359 3434 948 4092 
Q 1538 4750 2522 4750 
z
" id="DejaVuSans-4f" transform="scale(0.015625)"/>
       <path d="M 2375 4863 
L 2375 4384 
L 1825 4384 
Q 1516 4384 1395 4259 
Q 1275 4134 1275 3809 
L 1275 3500 
L 2222 3500 
L 2222 3053 
L 1275 3053 
L 1275 0 
L 697 0 
L 697 3053 
L 147 3053 
L 147 3500 
L 697 3500 
L 697 3744 
Q 697 4328 969 4595 
Q 1241 4863 1831 4863 
L 2375 4863 
z
" id="DejaVuSans-66" transform="scale(0.015625)"/>
       <path d="M 313 2009 
L 1997 2009 
L 1997 1497 
L 313 1497 
L 313 2009 
z
" id="DejaVuSans-2d" transform="scale(0.015625)"/>
       <path d="M 603 3500 
L 1178 3500 
L 1178 0 
L 603 0 
L 603 3500 
z
M 603 4863 
L 1178 4863 
L 1178 4134 
L 603 4134 
L 603 4863 
z
" id="DejaVuSans-69" transform="scale(0.015625)"/>
       <path d="M 3122 3366 
L 3122 2828 
Q 2878 2963 2633 3030 
Q 2388 3097 2138 3097 
Q 1578 3097 1268 2742 
Q 959 2388 959 1747 
Q 959 1106 1268 751 
Q 1578 397 2138 397 
Q 2388 397 2633 464 
Q 2878 531 3122 666 
L 3122 134 
Q 2881 22 2623 -34 
Q 2366 -91 2075 -91 
Q 1284 -91 818 406 
Q 353 903 353 1747 
Q 353 2603 823 3093 
Q 1294 3584 2113 3584 
Q 2378 3584 2631 3529 
Q 2884 3475 3122 3366 
z
" id="DejaVuSans-63" transform="scale(0.015625)"/>
       <path d="M 3597 1894 
L 3597 1613 
L 953 1613 
Q 991 1019 1311 708 
Q 1631 397 2203 397 
Q 2534 397 2845 478 
Q 3156 559 3463 722 
L 3463 178 
Q 3153 47 2828 -22 
Q 2503 -91 2169 -91 
Q 1331 -91 842 396 
Q 353 884 353 1716 
Q 353 2575 817 3079 
Q 1281 3584 2069 3584 
Q 2775 3584 3186 3129 
Q 3597 2675 3597 1894 
z
M 3022 2063 
Q 3016 2534 2758 2815 
Q 2500 3097 2075 3097 
Q 1594 3097 1305 2825 
Q 1016 2553 972 2059 
L 3022 2063 
z
" id="DejaVuSans-65" transform="scale(0.015625)"/>
       <path id="DejaVuSans-20" transform="scale(0.015625)"/>
       <path d="M 2194 1759 
Q 1497 1759 1228 1600 
Q 959 1441 959 1056 
Q 959 750 1161 570 
Q 1363 391 1709 391 
Q 2188 391 2477 730 
Q 2766 1069 2766 1631 
L 2766 1759 
L 2194 1759 
z
M 3341 1997 
L 3341 0 
L 2766 0 
L 2766 531 
Q 2569 213 2275 61 
Q 1981 -91 1556 -91 
Q 1019 -91 701 211 
Q 384 513 384 1019 
Q 384 1609 779 1909 
Q 1175 2209 1959 2209 
L 2766 2209 
L 2766 2266 
Q 2766 2663 2505 2880 
Q 2244 3097 1772 3097 
Q 1472 3097 1187 3025 
Q 903 2953 641 2809 
L 641 3341 
Q 956 3463 1253 3523 
Q 1550 3584 1831 3584 
Q 2591 3584 2966 3190 
Q 3341 2797 3341 1997 
z
" id="DejaVuSans-61" transform="scale(0.015625)"/>
       <path d="M 2631 2963 
Q 2534 3019 2420 3045 
Q 2306 3072 2169 3072 
Q 1681 3072 1420 2755 
Q 1159 2438 1159 1844 
L 1159 0 
L 581 0 
L 581 3500 
L 1159 3500 
L 1159 2956 
Q 1341 3275 1631 3429 
Q 1922 3584 2338 3584 
Q 2397 3584 2469 3576 
Q 2541 3569 2628 3553 
L 2631 2963 
z
" id="DejaVuSans-72" transform="scale(0.015625)"/>
       <path d="M 1959 3097 
Q 1497 3097 1228 2736 
Q 959 2375 959 1747 
Q 959 1119 1226 758 
Q 1494 397 1959 397 
Q 2419 397 2687 759 
Q 2956 1122 2956 1747 
Q 2956 2369 2687 2733 
Q 2419 3097 1959 3097 
z
M 1959 3584 
Q 2709 3584 3137 3096 
Q 3566 2609 3566 1747 
Q 3566 888 3137 398 
Q 2709 -91 1959 -91 
Q 1206 -91 779 398 
Q 353 888 353 1747 
Q 353 2609 779 3096 
Q 1206 3584 1959 3584 
z
" id="DejaVuSans-6f" transform="scale(0.015625)"/>
       <path d="M 1984 4856 
Q 1566 4138 1362 3434 
Q 1159 2731 1159 2009 
Q 1159 1288 1364 580 
Q 1569 -128 1984 -844 
L 1484 -844 
Q 1016 -109 783 600 
Q 550 1309 550 2009 
Q 550 2706 781 3412 
Q 1013 4119 1484 4856 
L 1984 4856 
z
" id="DejaVuSans-28" transform="scale(0.015625)"/>
       <path d="M 3328 2828 
Q 3544 3216 3844 3400 
Q 4144 3584 4550 3584 
Q 5097 3584 5394 3201 
Q 5691 2819 5691 2113 
L 5691 0 
L 5113 0 
L 5113 2094 
Q 5113 2597 4934 2840 
Q 4756 3084 4391 3084 
Q 3944 3084 3684 2787 
Q 3425 2491 3425 1978 
L 3425 0 
L 2847 0 
L 2847 2094 
Q 2847 2600 2669 2842 
Q 2491 3084 2119 3084 
Q 1678 3084 1418 2786 
Q 1159 2488 1159 1978 
L 1159 0 
L 581 0 
L 581 3500 
L 1159 3500 
L 1159 2956 
Q 1356 3278 1631 3431 
Q 1906 3584 2284 3584 
Q 2666 3584 2933 3390 
Q 3200 3197 3328 2828 
z
" id="DejaVuSans-6d" transform="scale(0.015625)"/>
       <path d="M 1625 4666 
L 2156 4666 
L 531 -594 
L 0 -594 
L 1625 4666 
z
" id="DejaVuSans-2f" transform="scale(0.015625)"/>
       <path d="M 2906 2969 
L 2906 4863 
L 3481 4863 
L 3481 0 
L 2906 0 
L 2906 525 
Q 2725 213 2448 61 
Q 2172 -91 1784 -91 
Q 1150 -91 751 415 
Q 353 922 353 1747 
Q 353 2572 751 3078 
Q 1150 3584 1784 3584 
Q 2172 3584 2448 3432 
Q 2725 3281 2906 2969 
z
M 947 1747 
Q 947 1113 1208 752 
Q 1469 391 1925 391 
Q 2381 391 2643 752 
Q 2906 1113 2906 1747 
Q 2906 2381 2643 2742 
Q 2381 3103 1925 3103 
Q 1469 3103 1208 2742 
Q 947 2381 947 1747 
z
" id="DejaVuSans-64" transform="scale(0.015625)"/>
       <path d="M 2059 -325 
Q 1816 -950 1584 -1140 
Q 1353 -1331 966 -1331 
L 506 -1331 
L 506 -850 
L 844 -850 
Q 1081 -850 1212 -737 
Q 1344 -625 1503 -206 
L 1606 56 
L 191 3500 
L 800 3500 
L 1894 763 
L 2988 3500 
L 3597 3500 
L 2059 -325 
z
" id="DejaVuSans-79" transform="scale(0.015625)"/>
       <path d="M 513 4856 
L 1013 4856 
Q 1481 4119 1714 3412 
Q 1947 2706 1947 2009 
Q 1947 1309 1714 600 
Q 1481 -109 1013 -844 
L 513 -844 
Q 928 -128 1133 580 
Q 1338 1288 1338 2009 
Q 1338 2731 1133 3434 
Q 928 4138 513 4856 
z
" id="DejaVuSans-29" transform="scale(0.015625)"/>
      </defs>
      <use xlink:href="#DejaVuSans-4f"/>
      <use x="78.710938" xlink:href="#DejaVuSans-66"/>
      <use x="113.916016" xlink:href="#DejaVuSans-66"/>
      <use x="143.621094" xlink:href="#DejaVuSans-2d"/>
      <use x="179.705078" xlink:href="#DejaVuSans-69"/>
      <use x="207.488281" xlink:href="#DejaVuSans-63"/>
      <use x="262.46875" xlink:href="#DejaVuSans-65"/>
      <use x="323.992188" xlink:href="#DejaVuSans-20"/>
      <use x="355.779297" xlink:href="#DejaVuSans-61"/>
      <use x="417.058594" xlink:href="#DejaVuSans-72"/>
      <use x="455.921875" xlink:href="#DejaVuSans-65"/>
      <use x="517.445312" xlink:href="#DejaVuSans-61"/>
      <use x="578.724609" xlink:href="#DejaVuSans-20"/>
      <use x="610.511719" xlink:href="#DejaVuSans-65"/>
      <use x="672.035156" xlink:href="#DejaVuSans-72"/>
      <use x="711.398438" xlink:href="#DejaVuSans-72"/>
      <use x="750.261719" xlink:href="#DejaVuSans-6f"/>
      <use x="811.443359" xlink:href="#DejaVuSans-72"/>
      <use x="852.556641" xlink:href="#DejaVuSans-20"/>
      <use x="884.34375" xlink:href="#DejaVuSans-28"/>
      <use x="923.357422" xlink:href="#DejaVuSans-6d"/>
      <use x="1020.769531" xlink:href="#DejaVuSans-2f"/>
      <use x="1054.460938" xlink:href="#DejaVuSans-64"/>
      <use x="1117.9375" xlink:href="#DejaVuSans-61"/>
      <use x="1179.216797" xlink:href="#DejaVuSans-79"/>
      <use x="1238.396484" xlink:href="#DejaVuSans-29"/>
     </g>
    </g>
   </g>
   <g id="matplotlib.axis_2">
    <g id="ytick_1">
     <g id="line2d_8">
      <defs>
       <path d="M 0 0 
L -3.5 0 
" id="mef62a7caf6" style="stroke:#000000;stroke-width:0.8;"/>
      </defs>
      <g>
       <use style="stroke:#000000;stroke-width:0.8;" x="63" xlink:href="#mef62a7caf6" y="376.638059"/>
      </g>
     </g>
     <g id="text_9">
      <!-- 1 -->
      <g transform="translate(43.275 384.236496)scale(0.2 -0.2)">
       <use xlink:href="#DejaVuSans-31"/>
      </g>
     </g>
    </g>
    <g id="ytick_2">
     <g id="line2d_9">
      <g>
       <use style="stroke:#000000;stroke-width:0.8;" x="63" xlink:href="#mef62a7caf6" y="298.860416"/>
      </g>
     </g>
     <g id="text_10">
      <!-- 2 -->
      <g transform="translate(43.275 306.458853)scale(0.2 -0.2)">
       <use xlink:href="#DejaVuSans-32"/>
      </g>
     </g>
    </g>
    <g id="ytick_3">
     <g id="line2d_10">
      <g>
       <use style="stroke:#000000;stroke-width:0.8;" x="63" xlink:href="#mef62a7caf6" y="221.082772"/>
      </g>
     </g>
     <g id="text_11">
      <!-- 3 -->
      <g transform="translate(43.275 228.68121)scale(0.2 -0.2)">
       <defs>
        <path d="M 2597 2516 
Q 3050 2419 3304 2112 
Q 3559 1806 3559 1356 
Q 3559 666 3084 287 
Q 2609 -91 1734 -91 
Q 1441 -91 1130 -33 
Q 819 25 488 141 
L 488 750 
Q 750 597 1062 519 
Q 1375 441 1716 441 
Q 2309 441 2620 675 
Q 2931 909 2931 1356 
Q 2931 1769 2642 2001 
Q 2353 2234 1838 2234 
L 1294 2234 
L 1294 2753 
L 1863 2753 
Q 2328 2753 2575 2939 
Q 2822 3125 2822 3475 
Q 2822 3834 2567 4026 
Q 2313 4219 1838 4219 
Q 1578 4219 1281 4162 
Q 984 4106 628 3988 
L 628 4550 
Q 988 4650 1302 4700 
Q 1616 4750 1894 4750 
Q 2613 4750 3031 4423 
Q 3450 4097 3450 3541 
Q 3450 3153 3228 2886 
Q 3006 2619 2597 2516 
z
" id="DejaVuSans-33" transform="scale(0.015625)"/>
       </defs>
       <use xlink:href="#DejaVuSans-33"/>
      </g>
     </g>
    </g>
    <g id="ytick_4">
     <g id="line2d_11">
      <g>
       <use style="stroke:#000000;stroke-width:0.8;" x="63" xlink:href="#mef62a7caf6" y="143.305129"/>
      </g>
     </g>
     <g id="text_12">
      <!-- 4 -->
      <g transform="translate(43.275 150.903566)scale(0.2 -0.2)">
       <use xlink:href="#DejaVuSans-34"/>
      </g>
     </g>
    </g>
    <g id="ytick_5">
     <g id="line2d_12">
      <g>
       <use style="stroke:#000000;stroke-width:0.8;" x="63" xlink:href="#mef62a7caf6" y="65.527486"/>
      </g>
     </g>
     <g id="text_13">
      <!-- 5 -->
      <g transform="translate(43.275 73.125923)scale(0.2 -0.2)">
       <defs>
        <path d="M 691 4666 
L 3169 4666 
L 3169 4134 
L 1269 4134 
L 1269 2991 
Q 1406 3038 1543 3061 
Q 1681 3084 1819 3084 
Q 2600 3084 3056 2656 
Q 3513 2228 3513 1497 
Q 3513 744 3044 326 
Q 2575 -91 1722 -91 
Q 1428 -91 1123 -41 
Q 819 9 494 109 
L 494 744 
Q 775 591 1075 516 
Q 1375 441 1709 441 
Q 2250 441 2565 725 
Q 2881 1009 2881 1497 
Q 2881 1984 2565 2268 
Q 2250 2553 1709 2553 
Q 1456 2553 1204 2497 
Q 953 2441 691 2322 
L 691 4666 
z
" id="DejaVuSans-35" transform="scale(0.015625)"/>
       </defs>
       <use xlink:href="#DejaVuSans-35"/>
      </g>
     </g>
    </g>
    <g id="text_14">
     <!-- On-ice edge richness (m/day) -->
     <g transform="translate(35.115625 398.466563)rotate(-90)scale(0.2 -0.2)">
      <defs>
       <path d="M 3513 2113 
L 3513 0 
L 2938 0 
L 2938 2094 
Q 2938 2591 2744 2837 
Q 2550 3084 2163 3084 
Q 1697 3084 1428 2787 
Q 1159 2491 1159 1978 
L 1159 0 
L 581 0 
L 581 3500 
L 1159 3500 
L 1159 2956 
Q 1366 3272 1645 3428 
Q 1925 3584 2291 3584 
Q 2894 3584 3203 3211 
Q 3513 2838 3513 2113 
z
" id="DejaVuSans-6e" transform="scale(0.015625)"/>
       <path d="M 2906 1791 
Q 2906 2416 2648 2759 
Q 2391 3103 1925 3103 
Q 1463 3103 1205 2759 
Q 947 2416 947 1791 
Q 947 1169 1205 825 
Q 1463 481 1925 481 
Q 2391 481 2648 825 
Q 2906 1169 2906 1791 
z
M 3481 434 
Q 3481 -459 3084 -895 
Q 2688 -1331 1869 -1331 
Q 1566 -1331 1297 -1286 
Q 1028 -1241 775 -1147 
L 775 -588 
Q 1028 -725 1275 -790 
Q 1522 -856 1778 -856 
Q 2344 -856 2625 -561 
Q 2906 -266 2906 331 
L 2906 616 
Q 2728 306 2450 153 
Q 2172 0 1784 0 
Q 1141 0 747 490 
Q 353 981 353 1791 
Q 353 2603 747 3093 
Q 1141 3584 1784 3584 
Q 2172 3584 2450 3431 
Q 2728 3278 2906 2969 
L 2906 3500 
L 3481 3500 
L 3481 434 
z
" id="DejaVuSans-67" transform="scale(0.015625)"/>
       <path d="M 3513 2113 
L 3513 0 
L 2938 0 
L 2938 2094 
Q 2938 2591 2744 2837 
Q 2550 3084 2163 3084 
Q 1697 3084 1428 2787 
Q 1159 2491 1159 1978 
L 1159 0 
L 581 0 
L 581 4863 
L 1159 4863 
L 1159 2956 
Q 1366 3272 1645 3428 
Q 1925 3584 2291 3584 
Q 2894 3584 3203 3211 
Q 3513 2838 3513 2113 
z
" id="DejaVuSans-68" transform="scale(0.015625)"/>
       <path d="M 2834 3397 
L 2834 2853 
Q 2591 2978 2328 3040 
Q 2066 3103 1784 3103 
Q 1356 3103 1142 2972 
Q 928 2841 928 2578 
Q 928 2378 1081 2264 
Q 1234 2150 1697 2047 
L 1894 2003 
Q 2506 1872 2764 1633 
Q 3022 1394 3022 966 
Q 3022 478 2636 193 
Q 2250 -91 1575 -91 
Q 1294 -91 989 -36 
Q 684 19 347 128 
L 347 722 
Q 666 556 975 473 
Q 1284 391 1588 391 
Q 1994 391 2212 530 
Q 2431 669 2431 922 
Q 2431 1156 2273 1281 
Q 2116 1406 1581 1522 
L 1381 1569 
Q 847 1681 609 1914 
Q 372 2147 372 2553 
Q 372 3047 722 3315 
Q 1072 3584 1716 3584 
Q 2034 3584 2315 3537 
Q 2597 3491 2834 3397 
z
" id="DejaVuSans-73" transform="scale(0.015625)"/>
      </defs>
      <use xlink:href="#DejaVuSans-4f"/>
      <use x="78.710938" xlink:href="#DejaVuSans-6e"/>
      <use x="142.089844" xlink:href="#DejaVuSans-2d"/>
      <use x="178.173828" xlink:href="#DejaVuSans-69"/>
      <use x="205.957031" xlink:href="#DejaVuSans-63"/>
      <use x="260.9375" xlink:href="#DejaVuSans-65"/>
      <use x="322.460938" xlink:href="#DejaVuSans-20"/>
      <use x="354.248047" xlink:href="#DejaVuSans-65"/>
      <use x="415.771484" xlink:href="#DejaVuSans-64"/>
      <use x="479.248047" xlink:href="#DejaVuSans-67"/>
      <use x="542.724609" xlink:href="#DejaVuSans-65"/>
      <use x="604.248047" xlink:href="#DejaVuSans-20"/>
      <use x="636.035156" xlink:href="#DejaVuSans-72"/>
      <use x="677.148438" xlink:href="#DejaVuSans-69"/>
      <use x="704.931641" xlink:href="#DejaVuSans-63"/>
      <use x="759.912109" xlink:href="#DejaVuSans-68"/>
      <use x="823.291016" xlink:href="#DejaVuSans-6e"/>
      <use x="886.669922" xlink:href="#DejaVuSans-65"/>
      <use x="948.193359" xlink:href="#DejaVuSans-73"/>
      <use x="1000.292969" xlink:href="#DejaVuSans-73"/>
      <use x="1052.392578" xlink:href="#DejaVuSans-20"/>
      <use x="1084.179688" xlink:href="#DejaVuSans-28"/>
      <use x="1123.193359" xlink:href="#DejaVuSans-6d"/>
      <use x="1220.605469" xlink:href="#DejaVuSans-2f"/>
      <use x="1254.296875" xlink:href="#DejaVuSans-64"/>
      <use x="1317.773438" xlink:href="#DejaVuSans-61"/>
      <use x="1379.052734" xlink:href="#DejaVuSans-79"/>
      <use x="1438.232422" xlink:href="#DejaVuSans-29"/>
     </g>
    </g>
   </g>
   <g id="patch_3">
    <path d="M 63 441 
L 63 60.48 
" style="fill:none;stroke:#000000;stroke-linecap:square;stroke-linejoin:miter;stroke-width:2;"/>
   </g>
   <g id="patch_4">
    <path d="M 453.6 441 
L 453.6 60.48 
" style="fill:none;stroke:#000000;stroke-linecap:square;stroke-linejoin:miter;stroke-width:2;"/>
   </g>
   <g id="patch_5">
    <path d="M 63 441 
L 453.6 441 
" style="fill:none;stroke:#000000;stroke-linecap:square;stroke-linejoin:miter;stroke-width:2;"/>
   </g>
   <g id="patch_6">
    <path d="M 63 60.48 
L 453.6 60.48 
" style="fill:none;stroke:#000000;stroke-linecap:square;stroke-linejoin:miter;stroke-width:2;"/>
   </g>
   <g id="legend_1">
    <g id="patch_7">
     <path d="M 320.66 433 
L 442.4 433 
Q 445.6 433 445.6 429.8 
L 445.6 196.55 
Q 445.6 193.35 442.4 193.35 
L 320.66 193.35 
Q 317.46 193.35 317.46 196.55 
L 317.46 429.8 
Q 317.46 433 320.66 433 
z
" style="fill:#ffffff;opacity:0.8;stroke:#cccccc;stroke-linejoin:miter;stroke-width:2;"/>
    </g>
    <g id="text_15">
     <!-- Prefilter -->
     <g transform="translate(336.66 211.9075)scale(0.16 -0.16)">
      <defs>
       <path d="M 1259 4147 
L 1259 2394 
L 2053 2394 
Q 2494 2394 2734 2622 
Q 2975 2850 2975 3272 
Q 2975 3691 2734 3919 
Q 2494 4147 2053 4147 
L 1259 4147 
z
M 628 4666 
L 2053 4666 
Q 2838 4666 3239 4311 
Q 3641 3956 3641 3272 
Q 3641 2581 3239 2228 
Q 2838 1875 2053 1875 
L 1259 1875 
L 1259 0 
L 628 0 
L 628 4666 
z
" id="DejaVuSans-50" transform="scale(0.015625)"/>
       <path d="M 603 4863 
L 1178 4863 
L 1178 0 
L 603 0 
L 603 4863 
z
" id="DejaVuSans-6c" transform="scale(0.015625)"/>
       <path d="M 1172 4494 
L 1172 3500 
L 2356 3500 
L 2356 3053 
L 1172 3053 
L 1172 1153 
Q 1172 725 1289 603 
Q 1406 481 1766 481 
L 2356 481 
L 2356 0 
L 1766 0 
Q 1100 0 847 248 
Q 594 497 594 1153 
L 594 3053 
L 172 3053 
L 172 3500 
L 594 3500 
L 594 4494 
L 1172 4494 
z
" id="DejaVuSans-74" transform="scale(0.015625)"/>
      </defs>
      <use xlink:href="#DejaVuSans-50"/>
      <use x="58.552734" xlink:href="#DejaVuSans-72"/>
      <use x="97.416016" xlink:href="#DejaVuSans-65"/>
      <use x="158.939453" xlink:href="#DejaVuSans-66"/>
      <use x="194.144531" xlink:href="#DejaVuSans-69"/>
      <use x="221.927734" xlink:href="#DejaVuSans-6c"/>
      <use x="249.710938" xlink:href="#DejaVuSans-74"/>
      <use x="288.919922" xlink:href="#DejaVuSans-65"/>
      <use x="350.443359" xlink:href="#DejaVuSans-72"/>
     </g>
    </g>
    <g id="PathCollection_10">
     <defs>
      <path d="M 0 3 
C 0.795609 3 1.55874 2.683901 2.12132 2.12132 
C 2.683901 1.55874 3 0.795609 3 0 
C 3 -0.795609 2.683901 -1.55874 2.12132 -2.12132 
C 1.55874 -2.683901 0.795609 -3 0 -3 
C -0.795609 -3 -1.55874 -2.683901 -2.12132 -2.12132 
C -2.683901 -1.55874 -3 -0.795609 -3 0 
C -3 0.795609 -2.683901 1.55874 -2.12132 2.12132 
C -1.55874 2.683901 -0.795609 3 0 3 
z
" id="mf5d25964d9" style="stroke:#1f77b4;"/>
     </defs>
     <g>
      <use style="fill:#1f77b4;stroke:#1f77b4;" x="339.86" xlink:href="#mf5d25964d9" y="231.1925"/>
     </g>
    </g>
    <g id="text_16">
     <!-- Gau -->
     <g transform="translate(368.66 235.3925)scale(0.16 -0.16)">
      <defs>
       <path d="M 3809 666 
L 3809 1919 
L 2778 1919 
L 2778 2438 
L 4434 2438 
L 4434 434 
Q 4069 175 3628 42 
Q 3188 -91 2688 -91 
Q 1594 -91 976 548 
Q 359 1188 359 2328 
Q 359 3472 976 4111 
Q 1594 4750 2688 4750 
Q 3144 4750 3555 4637 
Q 3966 4525 4313 4306 
L 4313 3634 
Q 3963 3931 3569 4081 
Q 3175 4231 2741 4231 
Q 1884 4231 1454 3753 
Q 1025 3275 1025 2328 
Q 1025 1384 1454 906 
Q 1884 428 2741 428 
Q 3075 428 3337 486 
Q 3600 544 3809 666 
z
" id="DejaVuSans-47" transform="scale(0.015625)"/>
       <path d="M 544 1381 
L 544 3500 
L 1119 3500 
L 1119 1403 
Q 1119 906 1312 657 
Q 1506 409 1894 409 
Q 2359 409 2629 706 
Q 2900 1003 2900 1516 
L 2900 3500 
L 3475 3500 
L 3475 0 
L 2900 0 
L 2900 538 
Q 2691 219 2414 64 
Q 2138 -91 1772 -91 
Q 1169 -91 856 284 
Q 544 659 544 1381 
z
M 1991 3584 
L 1991 3584 
z
" id="DejaVuSans-75" transform="scale(0.015625)"/>
      </defs>
      <use xlink:href="#DejaVuSans-47"/>
      <use x="77.490234" xlink:href="#DejaVuSans-61"/>
      <use x="138.769531" xlink:href="#DejaVuSans-75"/>
     </g>
    </g>
    <g id="PathCollection_11">
     <defs>
      <path d="M 0 3 
C 0.795609 3 1.55874 2.683901 2.12132 2.12132 
C 2.683901 1.55874 3 0.795609 3 0 
C 3 -0.795609 2.683901 -1.55874 2.12132 -2.12132 
C 1.55874 -2.683901 0.795609 -3 0 -3 
C -0.795609 -3 -1.55874 -2.683901 -2.12132 -2.12132 
C -2.683901 -1.55874 -3 -0.795609 -3 0 
C -3 0.795609 -2.683901 1.55874 -2.12132 2.12132 
C -1.55874 2.683901 -0.795609 3 0 3 
z
" id="m5bdf31afaf" style="stroke:#ff7f0e;"/>
     </defs>
     <g>
      <use style="fill:#ff7f0e;stroke:#ff7f0e;" x="339.86" xlink:href="#m5bdf31afaf" y="254.6775"/>
     </g>
    </g>
    <g id="text_17">
     <!-- NAOF -->
     <g transform="translate(368.66 258.8775)scale(0.16 -0.16)">
      <defs>
       <path d="M 628 4666 
L 1478 4666 
L 3547 763 
L 3547 4666 
L 4159 4666 
L 4159 0 
L 3309 0 
L 1241 3903 
L 1241 0 
L 628 0 
L 628 4666 
z
" id="DejaVuSans-4e" transform="scale(0.015625)"/>
       <path d="M 2188 4044 
L 1331 1722 
L 3047 1722 
L 2188 4044 
z
M 1831 4666 
L 2547 4666 
L 4325 0 
L 3669 0 
L 3244 1197 
L 1141 1197 
L 716 0 
L 50 0 
L 1831 4666 
z
" id="DejaVuSans-41" transform="scale(0.015625)"/>
       <path d="M 628 4666 
L 3309 4666 
L 3309 4134 
L 1259 4134 
L 1259 2759 
L 3109 2759 
L 3109 2228 
L 1259 2228 
L 1259 0 
L 628 0 
L 628 4666 
z
" id="DejaVuSans-46" transform="scale(0.015625)"/>
      </defs>
      <use xlink:href="#DejaVuSans-4e"/>
      <use x="74.804688" xlink:href="#DejaVuSans-41"/>
      <use x="141.462891" xlink:href="#DejaVuSans-4f"/>
      <use x="220.173828" xlink:href="#DejaVuSans-46"/>
     </g>
    </g>
    <g id="PathCollection_12">
     <defs>
      <path d="M 0 3 
C 0.795609 3 1.55874 2.683901 2.12132 2.12132 
C 2.683901 1.55874 3 0.795609 3 0 
C 3 -0.795609 2.683901 -1.55874 2.12132 -2.12132 
C 1.55874 -2.683901 0.795609 -3 0 -3 
C -0.795609 -3 -1.55874 -2.683901 -2.12132 -2.12132 
C -2.683901 -1.55874 -3 -0.795609 -3 0 
C -3 0.795609 -2.683901 1.55874 -2.12132 2.12132 
C -1.55874 2.683901 -0.795609 3 0 3 
z
" id="m4d83e34964" style="stroke:#2ca02c;"/>
     </defs>
     <g>
      <use style="fill:#2ca02c;stroke:#2ca02c;" x="339.86" xlink:href="#m4d83e34964" y="278.1625"/>
     </g>
    </g>
    <g id="text_18">
     <!-- None -->
     <g transform="translate(368.66 282.3625)scale(0.16 -0.16)">
      <use xlink:href="#DejaVuSans-4e"/>
      <use x="74.804688" xlink:href="#DejaVuSans-6f"/>
      <use x="135.986328" xlink:href="#DejaVuSans-6e"/>
      <use x="199.365234" xlink:href="#DejaVuSans-65"/>
     </g>
    </g>
    <g id="PathCollection_13">
     <defs>
      <path d="M 0 3 
C 0.795609 3 1.55874 2.683901 2.12132 2.12132 
C 2.683901 1.55874 3 0.795609 3 0 
C 3 -0.795609 2.683901 -1.55874 2.12132 -2.12132 
C 1.55874 -2.683901 0.795609 -3 0 -3 
C -0.795609 -3 -1.55874 -2.683901 -2.12132 -2.12132 
C -2.683901 -1.55874 -3 -0.795609 -3 0 
C -3 0.795609 -2.683901 1.55874 -2.12132 2.12132 
C -1.55874 2.683901 -0.795609 3 0 3 
z
" id="m4a006534b7" style="stroke:#d62728;"/>
     </defs>
     <g>
      <use style="fill:#d62728;stroke:#d62728;" x="339.86" xlink:href="#m4a006534b7" y="301.6475"/>
     </g>
    </g>
    <g id="text_19">
     <!-- LoG -->
     <g transform="translate(368.66 305.8475)scale(0.16 -0.16)">
      <defs>
       <path d="M 628 4666 
L 1259 4666 
L 1259 531 
L 3531 531 
L 3531 0 
L 628 0 
L 628 4666 
z
" id="DejaVuSans-4c" transform="scale(0.015625)"/>
      </defs>
      <use xlink:href="#DejaVuSans-4c"/>
      <use x="53.962891" xlink:href="#DejaVuSans-6f"/>
      <use x="115.144531" xlink:href="#DejaVuSans-47"/>
     </g>
    </g>
    <g id="text_20">
     <!-- Software -->
     <g transform="translate(336.66 329.3325)scale(0.16 -0.16)">
      <defs>
       <path d="M 3425 4513 
L 3425 3897 
Q 3066 4069 2747 4153 
Q 2428 4238 2131 4238 
Q 1616 4238 1336 4038 
Q 1056 3838 1056 3469 
Q 1056 3159 1242 3001 
Q 1428 2844 1947 2747 
L 2328 2669 
Q 3034 2534 3370 2195 
Q 3706 1856 3706 1288 
Q 3706 609 3251 259 
Q 2797 -91 1919 -91 
Q 1588 -91 1214 -16 
Q 841 59 441 206 
L 441 856 
Q 825 641 1194 531 
Q 1563 422 1919 422 
Q 2459 422 2753 634 
Q 3047 847 3047 1241 
Q 3047 1584 2836 1778 
Q 2625 1972 2144 2069 
L 1759 2144 
Q 1053 2284 737 2584 
Q 422 2884 422 3419 
Q 422 4038 858 4394 
Q 1294 4750 2059 4750 
Q 2388 4750 2728 4690 
Q 3069 4631 3425 4513 
z
" id="DejaVuSans-53" transform="scale(0.015625)"/>
       <path d="M 269 3500 
L 844 3500 
L 1563 769 
L 2278 3500 
L 2956 3500 
L 3675 769 
L 4391 3500 
L 4966 3500 
L 4050 0 
L 3372 0 
L 2619 2869 
L 1863 0 
L 1184 0 
L 269 3500 
z
" id="DejaVuSans-77" transform="scale(0.015625)"/>
      </defs>
      <use xlink:href="#DejaVuSans-53"/>
      <use x="63.476562" xlink:href="#DejaVuSans-6f"/>
      <use x="124.658203" xlink:href="#DejaVuSans-66"/>
      <use x="158.113281" xlink:href="#DejaVuSans-74"/>
      <use x="197.322266" xlink:href="#DejaVuSans-77"/>
      <use x="279.109375" xlink:href="#DejaVuSans-61"/>
      <use x="340.388672" xlink:href="#DejaVuSans-72"/>
      <use x="379.251953" xlink:href="#DejaVuSans-65"/>
     </g>
    </g>
    <g id="PathCollection_14">
     <defs>
      <path d="M 0 3 
C 0.795609 3 1.55874 2.683901 2.12132 2.12132 
C 2.683901 1.55874 3 0.795609 3 0 
C 3 -0.795609 2.683901 -1.55874 2.12132 -2.12132 
C 1.55874 -2.683901 0.795609 -3 0 -3 
C -0.795609 -3 -1.55874 -2.683901 -2.12132 -2.12132 
C -2.683901 -1.55874 -3 -0.795609 -3 0 
C -3 0.795609 -2.683901 1.55874 -2.12132 2.12132 
C -1.55874 2.683901 -0.795609 3 0 3 
z
" id="mbd2e16fa5f" style="stroke:#333333;"/>
     </defs>
     <g>
      <use style="fill:#333333;stroke:#333333;" x="339.86" xlink:href="#mbd2e16fa5f" y="348.6175"/>
     </g>
    </g>
    <g id="text_21">
     <!-- CARST -->
     <g transform="translate(368.66 352.8175)scale(0.16 -0.16)">
      <defs>
       <path d="M 4122 4306 
L 4122 3641 
Q 3803 3938 3442 4084 
Q 3081 4231 2675 4231 
Q 1875 4231 1450 3742 
Q 1025 3253 1025 2328 
Q 1025 1406 1450 917 
Q 1875 428 2675 428 
Q 3081 428 3442 575 
Q 3803 722 4122 1019 
L 4122 359 
Q 3791 134 3420 21 
Q 3050 -91 2638 -91 
Q 1578 -91 968 557 
Q 359 1206 359 2328 
Q 359 3453 968 4101 
Q 1578 4750 2638 4750 
Q 3056 4750 3426 4639 
Q 3797 4528 4122 4306 
z
" id="DejaVuSans-43" transform="scale(0.015625)"/>
       <path d="M 2841 2188 
Q 3044 2119 3236 1894 
Q 3428 1669 3622 1275 
L 4263 0 
L 3584 0 
L 2988 1197 
Q 2756 1666 2539 1819 
Q 2322 1972 1947 1972 
L 1259 1972 
L 1259 0 
L 628 0 
L 628 4666 
L 2053 4666 
Q 2853 4666 3247 4331 
Q 3641 3997 3641 3322 
Q 3641 2881 3436 2590 
Q 3231 2300 2841 2188 
z
M 1259 4147 
L 1259 2491 
L 2053 2491 
Q 2509 2491 2742 2702 
Q 2975 2913 2975 3322 
Q 2975 3731 2742 3939 
Q 2509 4147 2053 4147 
L 1259 4147 
z
" id="DejaVuSans-52" transform="scale(0.015625)"/>
       <path d="M -19 4666 
L 3928 4666 
L 3928 4134 
L 2272 4134 
L 2272 0 
L 1638 0 
L 1638 4134 
L -19 4134 
L -19 4666 
z
" id="DejaVuSans-54" transform="scale(0.015625)"/>
      </defs>
      <use xlink:href="#DejaVuSans-43"/>
      <use x="69.824219" xlink:href="#DejaVuSans-41"/>
      <use x="138.232422" xlink:href="#DejaVuSans-52"/>
      <use x="207.714844" xlink:href="#DejaVuSans-53"/>
      <use x="271.191406" xlink:href="#DejaVuSans-54"/>
     </g>
    </g>
    <g id="PathCollection_15">
     <defs>
      <path d="M -1.5 3 
L 0 1.5 
L 1.5 3 
L 3 1.5 
L 1.5 0 
L 3 -1.5 
L 1.5 -3 
L 0 -1.5 
L -1.5 -3 
L -3 -1.5 
L -1.5 0 
L -3 1.5 
z
" id="m7b8328b3fd" style="stroke:#333333;"/>
     </defs>
     <g>
      <use style="fill:#333333;stroke:#333333;" x="339.86" xlink:href="#m7b8328b3fd" y="372.1025"/>
     </g>
    </g>
    <g id="text_22">
     <!-- GIV -->
     <g transform="translate(368.66 376.3025)scale(0.16 -0.16)">
      <defs>
       <path d="M 628 4666 
L 1259 4666 
L 1259 0 
L 628 0 
L 628 4666 
z
" id="DejaVuSans-49" transform="scale(0.015625)"/>
       <path d="M 1831 0 
L 50 4666 
L 709 4666 
L 2188 738 
L 3669 4666 
L 4325 4666 
L 2547 0 
L 1831 0 
z
" id="DejaVuSans-56" transform="scale(0.015625)"/>
      </defs>
      <use xlink:href="#DejaVuSans-47"/>
      <use x="77.490234" xlink:href="#DejaVuSans-49"/>
      <use x="106.982422" xlink:href="#DejaVuSans-56"/>
     </g>
    </g>
    <g id="PathCollection_16">
     <defs>
      <path d="M -2.12132 -2.12132 
L -2.12132 2.12132 
L 2.12132 2.12132 
L 2.12132 -2.12132 
z
" id="me89640f3a1" style="stroke:#333333;"/>
     </defs>
     <g>
      <use style="fill:#333333;stroke:#333333;" x="339.86" xlink:href="#me89640f3a1" y="395.5875"/>
     </g>
    </g>
    <g id="text_23">
     <!-- Vmap -->
     <g transform="translate(368.66 399.7875)scale(0.16 -0.16)">
      <defs>
       <path d="M 1159 525 
L 1159 -1331 
L 581 -1331 
L 581 3500 
L 1159 3500 
L 1159 2969 
Q 1341 3281 1617 3432 
Q 1894 3584 2278 3584 
Q 2916 3584 3314 3078 
Q 3713 2572 3713 1747 
Q 3713 922 3314 415 
Q 2916 -91 2278 -91 
Q 1894 -91 1617 61 
Q 1341 213 1159 525 
z
M 3116 1747 
Q 3116 2381 2855 2742 
Q 2594 3103 2138 3103 
Q 1681 3103 1420 2742 
Q 1159 2381 1159 1747 
Q 1159 1113 1420 752 
Q 1681 391 2138 391 
Q 2594 391 2855 752 
Q 3116 1113 3116 1747 
z
" id="DejaVuSans-70" transform="scale(0.015625)"/>
      </defs>
      <use xlink:href="#DejaVuSans-56"/>
      <use x="68.408203" xlink:href="#DejaVuSans-6d"/>
      <use x="165.820312" xlink:href="#DejaVuSans-61"/>
      <use x="227.099609" xlink:href="#DejaVuSans-70"/>
     </g>
    </g>
    <g id="PathCollection_17">
     <defs>
      <path d="M -1 3 
L 1 3 
L 1 1 
L 3 1 
L 3 -1 
L 1 -1 
L 1 -3 
L -1 -3 
L -1 -1 
L -3 -1 
L -3 1 
L -1 1 
z
" id="mbef094d435" style="stroke:#333333;"/>
     </defs>
     <g>
      <use style="fill:#333333;stroke:#333333;" x="339.86" xlink:href="#mbef094d435" y="419.0725"/>
     </g>
    </g>
    <g id="text_24">
     <!-- autoRIFT -->
     <g transform="translate(368.66 423.2725)scale(0.16 -0.16)">
      <use xlink:href="#DejaVuSans-61"/>
      <use x="61.279297" xlink:href="#DejaVuSans-75"/>
      <use x="124.658203" xlink:href="#DejaVuSans-74"/>
      <use x="163.867188" xlink:href="#DejaVuSans-6f"/>
      <use x="225.048828" xlink:href="#DejaVuSans-52"/>
      <use x="294.53125" xlink:href="#DejaVuSans-49"/>
      <use x="324.023438" xlink:href="#DejaVuSans-46"/>
      <use x="379.792969" xlink:href="#DejaVuSans-54"/>
     </g>
    </g>
   </g>
  </g>
 </g>
 <defs>
  <clipPath id="p620683f6e1">
   <rect height="380.52" width="390.6" x="63" y="60.48"/>
  </clipPath>
 </defs>
</svg>
